HIERARCHY
ROOT hip
{
	OFFSET 0.000000 0.000000 0.000000
	CHANNELS 6 Xposition Yposition Zposition Xrotation Zrotation Yrotation 
	JOINT abdomen
	{
		OFFSET 0.000000 3.422050 0.000000
		CHANNELS 3 Xrotation Zrotation Yrotation 
		JOINT chest
		{
			OFFSET 0.000000 8.486693 -0.684411
			CHANNELS 3 Xrotation Zrotation Yrotation 
			JOINT neck
			{
				OFFSET 0.000000 10.266162 -0.273764
				CHANNELS 3 Xrotation Zrotation Yrotation 
				JOINT head
				{
					OFFSET 0.000000 3.148285 0.000000
					CHANNELS 3 Xrotation Zrotation Yrotation 
					End Site
					{
						OFFSET 0.000000 3.148289 0.000000
					}
				}
			}
			JOINT lCollar
			{
				OFFSET 3.422053 6.707223 -0.821293
				CHANNELS 3 Yrotation Zrotation Xrotation 
				JOINT lShldr
				{
					OFFSET 3.285171 0.000000 0.000000
					CHANNELS 3 Zrotation Yrotation Xrotation 
					JOINT lForeArm
					{
						OFFSET 10.129278 0.000000 0.000000
						CHANNELS 3 Yrotation Zrotation Xrotation 
						JOINT lHand
						{
							OFFSET 8.486692 0.000000 0.000000
							CHANNELS 3 Zrotation Yrotation Xrotation 
							End Site
							{
								OFFSET 4.106464 0.000000 0.000000
							}
						}
					}
				}
			}
			JOINT rCollar
			{
				OFFSET -3.558935 6.707223 -0.821293
				CHANNELS 3 Yrotation Zrotation Xrotation 
				JOINT rShldr
				{
					OFFSET -3.148289 0.000000 0.000000
					CHANNELS 3 Zrotation Yrotation Xrotation 
					JOINT rForeArm
					{
						OFFSET -10.266159 0.000000 0.000000
						CHANNELS 3 Yrotation Zrotation Xrotation 
						JOINT rHand
						{
							OFFSET -8.349810 0.000000 0.000000
							CHANNELS 3 Zrotation Yrotation Xrotation 
							End Site
							{
								OFFSET -4.106464 0.000000 0.000000
							}
						}
					}
				}
			}
		}
	}
	JOINT lThigh
	{
		OFFSET 5.338403 -1.642589 1.368821
		CHANNELS 3 Xrotation Zrotation Yrotation 
		JOINT lShin
		{
			OFFSET -2.053232 -20.121670 0.000000
			CHANNELS 3 Xrotation Zrotation Yrotation 
			JOINT lFoot
			{
				OFFSET 0.000000 -19.300380 -1.231939
				CHANNELS 3 Xrotation Yrotation Zrotation 
				End Site
				{
					OFFSET 0.000000 -2.463878 4.653993
				}
			}
		}
	}
	JOINT rThigh
	{
		OFFSET -5.338403 -1.642589 1.368821
		CHANNELS 3 Xrotation Zrotation Yrotation 
		JOINT rShin
		{
			OFFSET 2.053232 -20.121670 0.000000
			CHANNELS 3 Xrotation Zrotation Yrotation 
			JOINT rFoot
			{
				OFFSET 0.000000 -19.300380 -1.231939
				CHANNELS 3 Xrotation Yrotation Zrotation 
				End Site
				{
					OFFSET 0.000000 -2.463878 4.653993
				}
			}
		}
	}
}
MOTION
Frames: 16
Frame Time: 0.039918
0.399491 14.684647 1.962932 -89.429939 0.107433 -179.878906 -22.660601 -0.619249 -1.177716 -6.163536 -0.666197 -2.280553 3.063451 -5.002010 -21.001545 -19.073872 -14.001539 -15.001488 12.549494 12.585476 35.557652 53.318993 -47.527630 -2.348791 -71.452377 39.486774 18.882814 91.339653 51.710777 17.394903 -26.543465 40.715729 21.401241 -20.784822 57.733273 25.450773 66.119247 -34.635468 13.472436 -58.635078 8.302421 4.133178 -85.425179 67.224388 -0.430111 86.137688 -7.613921 -5.076176 56.924149 -8.424158 15.318091 -85.434311 -67.237076 0.421893 86.137138 7.613753 5.071186 56.926743 8.412771 -15.331653 
0.399491 14.718740 1.976449 -90.363106 0.113865 -179.874374 -23.670736 -0.619191 -1.177689 -6.866991 -0.666190 -2.280483 2.871254 -5.002027 -21.001534 -19.424347 -14.001572 -15.001477 11.969131 12.615960 36.191113 53.064362 -47.554417 -2.125038 -70.679642 39.281139 18.393570 91.339653 51.710777 17.394903 -26.487232 40.779568 21.726831 -20.561806 57.619102 25.655277 65.532112 -34.469009 13.139295 -58.430241 8.545884 3.993949 -86.734642 66.722008 -1.129257 86.137688 -7.613921 -5.076176 56.925381 -8.406244 14.711377 -86.743652 -66.734283 1.121634 86.137138 7.613753 5.071186 56.927860 8.395221 -14.724293 
0.399491 14.752831 1.989965 -91.296028 0.120368 -179.869949 -24.680546 -0.619133 -1.177662 -7.570336 -0.666182 -2.280413 2.679024 -5.002045 -21.001532 -19.775017 -14.001603 -15.001464 11.388499 12.640174 36.824810 52.809448 -47.580524 -1.901005 -69.911537 39.070450 17.909439 91.339653 51.710777 17.394903 -26.431437 40.843651 22.052649 -20.340246 57.504490 25.858309 64.947403 -34.299770 12.808928 -58.225876 8.789828 3.855519 -88.002083 66.213844 -1.785489 86.137688 -7.613921 -5.076176 56.926815 -8.388344 14.104758 -88.010849 -66.225647 1.778396 86.137138 7.613753 5.071186 56.929173 8.377685 -14.117033 
0.399491 14.786924 2.003482 -92.228577 0.126939 -179.865631 -25.689890 -0.619074 -1.177637 -8.273525 -0.666173 -2.280343 2.486762 -5.002063 -21.001526 -20.125881 -14.001635 -15.001452 10.807733 12.658111 37.458599 52.554268 -47.605965 -1.676683 -69.148216 38.854813 17.430529 91.339653 51.710777 17.394903 -26.376072 40.907974 22.378675 -20.120136 57.389462 26.059877 64.365135 -34.127792 12.481379 -58.021992 9.034247 3.717885 -89.229523 65.700325 -2.400938 86.137688 -7.613921 -5.076176 56.928432 -8.370463 13.498269 -89.238045 -65.711731 2.394313 86.137138 7.613753 5.071186 56.930676 8.360165 -13.509899 
0.399491 14.821016 2.016999 -93.160645 0.133576 -179.861404 -26.698610 -0.619015 -1.177613 -8.976501 -0.666164 -2.280273 2.294470 -5.002081 -21.001524 -20.476929 -14.001665 -15.001438 10.226973 12.669777 38.092369 52.298836 -47.630733 -1.452100 -68.389732 38.634300 16.956913 91.339653 51.710777 17.394903 -26.321140 40.972515 22.704908 -19.901468 57.274040 26.260014 63.785328 -33.953094 12.156668 -57.818558 9.279124 3.581050 -90.419106 65.182007 -2.977687 86.137688 -7.613921 -5.076176 56.930248 -8.352607 12.891947 -90.427307 -65.192978 2.971471 86.137138 7.613753 5.071186 56.932358 8.342668 -12.902929 
0.399491 14.855108 2.030515 -94.092102 0.140277 -179.857315 -27.706547 -0.618955 -1.177589 -9.679212 -0.666153 -2.280203 2.102148 -5.002099 -21.001518 -20.828156 -14.001694 -15.001421 9.646350 12.675175 38.725967 52.043133 -47.654816 -1.227254 -67.636185 38.408997 16.488668 91.339653 51.710777 17.394903 -26.266645 41.037292 23.031343 -19.684237 57.158192 26.458685 63.208027 -33.775719 11.834834 -57.615612 9.524458 3.445015 -91.572624 64.659264 -3.517660 86.137688 -7.613921 -5.076176 56.932240 -8.334771 12.285816 -91.580490 -64.669815 3.511823 86.137138 7.613753 5.071186 56.934219 8.325191 -12.296157 
0.399491 14.889201 2.044032 -95.022797 0.147037 -179.853317 -28.713541 -0.618895 -1.177567 -10.381605 -0.666142 -2.280134 1.909796 -5.002117 -21.001516 -21.179556 -14.001723 -15.001410 9.066002 12.674311 39.359264 51.787163 -47.678211 -1.002157 -66.887611 38.179001 16.025862 91.339653 51.710777 17.394903 -26.212599 41.102295 23.357983 -19.468424 57.041954 26.655933 62.633286 -33.595722 11.515904 -57.413136 9.770236 3.309777 -92.691994 64.132538 -4.022766 86.137688 -7.613921 -5.076176 56.934441 -8.316969 11.679922 -92.699493 -64.142700 4.017257 86.137138 7.613753 5.071186 56.936275 8.307742 -11.689614 
0.399491 14.923293 2.057549 -95.952652 0.153856 -179.849457 -29.719452 -0.618835 -1.177546 -11.083631 -0.666130 -2.280064 1.717417 -5.002135 -21.001511 -21.531126 -14.001757 -15.001397 8.486067 12.667192 39.992111 51.530979 -47.700939 -0.776810 -66.144150 37.944401 15.568578 91.339653 51.710777 17.394903 -26.158995 41.167519 23.684813 -19.254034 56.925316 26.851746 62.061092 -33.413116 11.199909 -57.211121 10.016450 3.175342 -93.778999 63.602264 -4.494770 86.137688 -7.613921 -5.076176 56.936825 -8.299194 11.074291 -93.786041 -63.611992 4.489555 86.137138 7.613753 5.071186 56.938515 8.290323 -11.083337 
0.399490 14.957386 2.071065 -96.881538 0.160729 -179.845703 -30.724113 -0.618775 -1.177526 -11.785230 -0.666117 -2.279994 1.525010 -5.002153 -21.001505 -21.882853 -14.001786 -15.001382 7.906677 12.653837 40.624386 51.274570 -47.722996 -0.551227 -65.405777 37.705269 15.116855 91.339653 51.710777 17.394903 -26.105839 41.232952 24.011831 -19.041042 56.808266 27.046141 61.491512 -33.227962 10.886879 -57.009560 10.263086 3.041705 -94.835213 63.068771 -4.935353 86.137688 -7.613921 -5.076176 56.939381 -8.281451 10.468954 -94.841812 -63.078102 4.930404 86.137138 7.613753 5.071186 56.940948 8.272936 -10.477359 
0.399490 14.991478 2.084582 -97.809311 0.167653 -179.842056 -31.727383 -0.618714 -1.177507 -12.486360 -0.666103 -2.279926 1.332579 -5.002171 -21.001499 -22.234732 -14.001816 -15.001367 7.327971 12.634265 41.255951 51.017933 -47.744373 -0.325417 -64.672600 37.461708 14.670754 91.339653 51.710777 17.394903 -26.053144 41.298607 24.339037 -18.829443 56.690834 27.239130 60.924557 -33.040291 10.576832 -56.808468 10.510141 2.908870 -95.862236 62.532452 -5.346120 86.137688 -7.613921 -5.076176 56.942135 -8.263747 9.863951 -95.868340 -62.541340 5.341407 86.137138 7.613753 5.071186 56.943562 8.255584 -9.871714 
0.399490 15.025570 2.098098 -98.735878 0.174627 -179.838531 -32.729103 -0.618653 -1.177489 -13.186955 -0.666088 -2.279856 1.140124 -5.002189 -21.001497 -22.586767 -14.001850 -15.001354 6.750078 12.608495 41.886665 50.761066 -47.765045 -0.099389 -63.944683 37.213814 14.230334 91.339653 51.710777 17.394903 -26.000910 41.364479 24.666431 -18.619244 56.573036 27.430731 60.360249 -32.850132 10.269794 -56.607849 10.757607 2.776837 -96.861557 61.993607 -5.728603 86.137688 -7.613921 -5.076176 56.945076 -8.246082 9.259315 -96.867172 -62.002102 5.724095 86.137138 7.613753 5.071186 56.946358 8.238271 -9.266434 
0.399490 15.059663 2.111615 -99.661087 0.181646 -179.835129 -33.729122 -0.618592 -1.177472 -13.886981 -0.666073 -2.279788 0.947645 -5.002205 -21.001486 -22.938934 -14.001882 -15.001343 6.173132 12.576557 42.516411 50.504005 -47.785053 0.126856 -63.222015 36.961666 13.795615 91.339653 51.710777 17.394903 -25.949131 41.430553 24.993996 -18.410418 56.454849 27.620937 59.798622 -32.657547 9.965787 -56.407669 11.005467 2.645605 -97.834549 61.452553 -6.084202 86.137688 -7.613921 -5.076176 56.948200 -8.228461 8.655074 -97.839630 -61.460632 6.079890 86.137138 7.613753 5.071186 56.949345 8.220998 -8.661552 
0.399490 15.093755 2.125131 -100.584846 0.188709 -179.831833 -34.727310 -0.618530 -1.177456 -14.586376 -0.666057 -2.279720 0.755143 -5.002224 -21.001486 -23.291233 -14.001910 -15.001326 5.597265 12.538476 43.145054 50.246738 -47.804371 0.353302 -62.504696 36.705379 13.366661 91.339653 51.710777 17.394903 -25.897818 41.496830 25.321732 -18.202948 56.336254 27.809748 59.239681 -32.462551 9.664827 -56.207947 11.253720 2.515176 -98.782578 60.909634 -6.414294 86.137688 -7.613921 -5.076176 56.951534 -8.210886 8.051270 -98.787071 -60.917282 6.410145 86.137138 7.613753 5.071186 56.952492 8.203768 -8.057101 
0.399490 15.127848 2.138648 -101.507050 0.195811 -179.828674 -35.723503 -0.618469 -1.177441 -15.285089 -0.666040 -2.279652 0.562621 -5.002242 -21.001480 -23.643660 -14.001941 -15.001312 5.022604 12.494287 43.772446 49.989300 -47.823017 0.579948 -61.792744 36.445038 12.943497 91.339653 51.710777 17.394903 -25.846975 41.563309 25.649641 -17.996851 56.217354 27.997227 58.683468 -32.265205 9.366940 -56.008690 11.502354 2.385550 -99.706825 60.365089 -6.720148 86.137688 -7.613921 -5.076176 56.955036 -8.193359 7.447924 -99.710747 -60.372322 6.716159 86.137138 7.613753 5.071186 56.955833 8.186585 -7.453116 
0.399490 15.161940 2.152164 -102.427544 0.202950 -179.825638 -36.717560 -0.618407 -1.177428 -15.983071 -0.666022 -2.279584 0.370078 -5.002259 -21.001478 -23.996212 -14.001971 -15.001297 4.449282 12.444023 44.398468 49.731651 -47.840950 0.806772 -61.086174 36.180725 12.526137 91.339653 51.710777 17.394903 -25.796602 41.629990 25.977709 -17.792095 56.098049 28.183325 58.129993 -32.065548 9.072140 -55.809868 11.751358 2.256727 -100.608490 59.819195 -7.002990 86.137688 -7.613921 -5.076176 56.958706 -8.175880 6.845076 -100.611839 -59.826015 6.999130 86.137138 7.613753 5.071186 56.959351 8.169452 -6.849630 
0.399490 15.196032 2.165681 -103.346245 0.210124 -179.822693 -37.709347 -0.618346 -1.177416 -16.680271 -0.666003 -2.279517 0.177515 -5.002277 -21.001467 -24.348875 -14.002003 -15.001281 3.877422 12.387731 45.023010 49.473846 -47.858219 1.033781 -60.385006 35.912540 12.114615 91.339653 51.710777 17.394903 -25.746710 41.696865 26.305941 -17.588682 55.978394 28.368082 57.579273 -31.863611 8.780444 -55.611504 12.000724 2.128709 -101.488701 59.272240 -7.263948 86.137688 -7.613921 -5.076176 56.962578 -8.158459 6.242761 -101.491486 -59.278652 7.260228 86.137138 7.613753 5.071186 56.963043 8.152369 -6.246674 
